<svg xmlns="http://www.w3.org/2000/svg" width="171.906" height="122.273" viewBox="0 0 171.906 122.273">
  <g id="logo_wyh_chatbot" transform="translate(-259.502 -268.277)">
    <g id="Group_13" data-name="Group 13" transform="translate(236.47 76.667)">
      <path id="Union_12" data-name="Union 12" d="M-449.7,800.026h-77.991c-25.368-39.361,0-69.416,0-69.416H-410.13c25.368,39.361,0,69.416,0,69.416h-16.637v19.258Z" transform="translate(578 -506.475)" fill="#eea201" stroke="rgba(0,0,0,0)" stroke-width="1"/>
    </g>
    <g id="Group_10" data-name="Group 10" transform="translate(0.227)">
      <path id="Path_68" data-name="Path 68" d="M293.956,309.8h2.936a46.652,46.652,0,0,0-8.043,25.723s.128,14.49,8.043,25.724H293.7a48.722,48.722,0,0,1-8.425-25.724S285.275,319.887,293.956,309.8Z" transform="translate(-3)" fill="#fff"/>
      <path id="Path_69" data-name="Path 69" d="M400.3,361.249H397.36a46.661,46.661,0,0,0,8.042-25.724s-.127-14.489-8.042-25.723h3.191a48.717,48.717,0,0,1,8.426,25.723S408.977,351.164,400.3,361.249Z" fill="#fff"/>
    </g>
    <circle id="Ellipse_9" data-name="Ellipse 9" cx="5.234" cy="5.234" r="5.234" transform="translate(314.19 318.128)" fill="#324357"/>
    <circle id="Ellipse_10" data-name="Ellipse 10" cx="5.234" cy="5.234" r="5.234" transform="translate(369.594 318.128)" fill="#324357"/>
    <path id="Path_70" data-name="Path 70" d="M314.19,340.394a47.374,47.374,0,0,0,34.079,13.353s16.831,1.193,31.793-13.353c0,0-5.234,19.857-32.754,19.857C347.308,360.251,322.149,360.251,314.19,340.394Z" transform="translate(-1.688)" fill="#324357"/>
    <rect id="Rectangle_17" data-name="Rectangle 17" width="5.787" height="19.745" transform="translate(342.9 280.872)" fill="#324357"/>
    <circle id="Ellipse_11" data-name="Ellipse 11" cx="7.489" cy="7.489" r="7.489" transform="translate(338.304 268.277)" fill="#af0a1b"/>
    <g id="Group_14" data-name="Group 14" transform="translate(0.906)">
      <path id="Subtraction_3" data-name="Subtraction 3" d="M856.34-9.4v0c3.194-9.671,5.326-24.951-2.661-42.819a22.009,22.009,0,0,1,13.141,7.393,21.92,21.92,0,0,1,3.887,6.552,21.918,21.918,0,0,1,1.41,7.768,21.8,21.8,0,0,1-4.469,13.293,22.08,22.08,0,0,1-5,4.789A21.875,21.875,0,0,1,856.342-9.4Z" transform="translate(-441.616 363.496)" fill="#434343"/>
      <path id="Subtraction_4" data-name="Subtraction 4" d="M869.621-9.4v0c-3.227-9.671-5.381-24.951,2.689-42.819a22.294,22.294,0,0,0-13.276,7.393,21.873,21.873,0,0,0-3.927,6.552,21.718,21.718,0,0,0-1.425,7.768,21.659,21.659,0,0,0,4.515,13.293,22.21,22.21,0,0,0,5.048,4.789A22.2,22.2,0,0,0,869.619-9.4Z" transform="matrix(1, -0.017, 0.017, 1, -594.042, 378.712)" fill="#434343"/>
    </g>
  </g>
</svg>
